<svg id="Calque_1" data-name="Calque 1" xmlns="http://www.w3.org/2000/svg" viewBox="0 0 84.19 84.19"><defs><style>.cls-1{fill:#f2e9cb;}.cls-2{fill:#9c6734;}.cls-3{fill:#f9e74b;}.cls-4{fill:#e1c94a;}.cls-5{fill:#f5f6f6;}.cls-6{fill:#45ace0;}</style></defs><path class="cls-1" d="M23.14,54.07c8.65,11.62,22.41,1.47,13.76-10.15C21.19,29.87,21.59,9.84,15.64,9.17,8.16,8.34,2.61,29,23.14,54.07Z"/><path class="cls-2" d="M78,52.28l4.61,3.66a36.15,36.15,0,0,1-3.84,4.72,37.49,37.49,0,0,1-6.56-6.18A33.45,33.45,0,0,0,78,52.28Z"/><path class="cls-3" d="M39.65,26.69a17.57,17.57,0,0,1,15.84,4C46.43,26.19,33,36.44,35,39.71A33.08,33.08,0,0,0,69.24,55.18c1-.18,2-.43,3-.7a37.49,37.49,0,0,0,6.56,6.18C60,69.38,37.51,64.23,28,46.67,24.11,39.51,31.52,28.62,39.65,26.69Z"/><path class="cls-4" d="M2.61,55.33s1.83-7.11,10.91-10.47C22.37,41.6,28,46.67,28,46.67A34.73,34.73,0,0,0,75.93,58.34c.94.83,1.91,1.62,2.83,2.32A36.52,36.52,0,0,1,26.44,61C13.89,46.24,2.61,55.33,2.61,55.33Z"/><path class="cls-5" d="M39.2,52.75c-3.89-2.28-5.88-6.11-4.43-8.55A3.8,3.8,0,0,1,37,42.6q.36.48.72.93a3.1,3.1,0,0,0-1.62,1.25c-1.17,2,.44,5.09,3.61,6.94s6.47,1.74,7.74-.09c.5.27,1,.53,1.51.78l0,.05C47.43,54.9,43.1,55,39.2,52.75Z"/><path class="cls-6" d="M47.4,51.63c-1.26,1.83-4.66,1.89-7.74.09s-4.78-5-3.61-6.94a3.1,3.1,0,0,1,1.62-1.25A33.11,33.11,0,0,0,47.4,51.63Z"/><path class="cls-3" d="M2.61,55.33c-.29,6.57,4.9,17,13.77,18.33S5.14,49,18.53,43.79C18.53,43.79,3.13,43.77,2.61,55.33Z"/><path class="cls-4" d="M37.37,27.47C57.18,19.88,63.87,43.16,54,40.4,50.4,39.4,48.36,32.54,37.37,27.47Z"/></svg>