<svg id="Calque_1" data-name="Calque 1" xmlns="http://www.w3.org/2000/svg" viewBox="0 0 84.19 84.19"><defs><style>.cls-1{fill:#f0f7f8;}.cls-2{fill:#d3d9da;}.cls-3{fill:#724f42;}.cls-4{fill:#906b55;}.cls-5{fill:#b59267;}.cls-6{fill:#f8f3da;}.cls-7{opacity:0.6;}.cls-8{fill:#a6afb1;}</style></defs><path class="cls-1" d="M65.37,50.13,69.17,47l7.7-.38,5.59,5.57c0-6.63-4.44-10.73-13.29-8.17a16.48,16.48,0,0,1-2.32.26Z"/><path class="cls-1" d="M79.29,51.86c0,6.2-14.58,7.83-19,10.94-1.87,1.31-5,7.14-5,7.14l25.9-15S79.29,47.05,79.29,51.86Z"/><path class="cls-2" d="M65.37,52.37l2.17-.51a7,7,0,0,1,2.09-3.6c2.21-2,9.68-1.54,9.68,3.28,0,7.93-15,10.37-19.43,13.48-1.86,1.31-4,5.36-4,5.36s1.62.3,2,0c6.8-5.61,24.6-7.95,24.6-18.44,0-3.77-5.47-8.49-13.29-5.68a13.69,13.69,0,0,1-2.32.26Z"/><path class="cls-2" d="M53,72.34H17.37S17.83,76,22.59,79c1.76,1.1,5.94,2.68,12.59,2.68S46,80.11,47.77,79C52.53,76,53,72.34,53,72.34Z"/><path class="cls-1" d="M67.9,39.24H2.46s.85,15.6,9.59,28.21C15.28,72.12,23,78.82,35.18,78.82s19.9-6.7,23.13-11.37C67.05,54.84,67.9,39.24,67.9,39.24Z"/><ellipse class="cls-1" cx="35.18" cy="39.32" rx="32.72" ry="13.63"/><path class="cls-2" d="M35.18,31.26c15.06,0,27.62,4.3,30.57,10a5.54,5.54,0,0,0,.65-2.57c0-7-14-12.6-31.22-12.6S4,31.75,4,38.71a5.66,5.66,0,0,0,.65,2.57C7.56,35.56,20.12,31.26,35.18,31.26Z"/><path class="cls-3" d="M35.18,51.3c15.06,0,27.62-4.3,30.57-10-3-5.72-15.51-10-30.57-10s-27.62,4.3-30.57,10C7.56,47,20.12,51.3,35.18,51.3Z"/><path class="cls-4" d="M56.14,37.9c-4.61-5.33-19.58-2.94-21-.28-1.91-2.84-16.5-4.95-21,.28-2.79,3.28,3.66,6.37,10.14,8.6,4.09,1.55,0,3.31,0,3.31A67,67,0,0,0,52,44.08C55.69,42.22,58,40.07,56.14,37.9Z"/><path class="cls-5" d="M48.51,39.77c-2.71-4.27-12.71-2.52-13.79-.42-1.08-2.27-10.56-4.09-13.82,0-2,2.58,2,5.1,6.16,6.93,2.59,1.27-.21,2.63-.21,2.63A40.06,40.06,0,0,0,45.4,44.64h0C48,43.2,49.62,41.52,48.51,39.77Z"/><path class="cls-6" d="M43.91,41.32c-1.81-2.86-8.5-1.69-9.22-.28-.73-1.52-7.08-2.74-9.25,0-1.37,1.73,1.35,3.41,4.12,4.64,1.73.85-.14,1.76-.14,1.76a26.81,26.81,0,0,0,12.41-2.87C43.54,43.62,44.66,42.49,43.91,41.32Z"/><g class="cls-7"><path class="cls-8" d="M37,14.24C32.05,9.13,35.32,1.69,35.32,1.69S25,11.52,31.51,18.3C39.07,26.14,35.32,31,35.32,31S44.68,22.25,37,14.24Z"/><path class="cls-8" d="M22.23,18.81C18.54,15.1,21,9.69,21,9.69s-7.75,7.15-2.85,12.08C23.8,27.48,21,31,21,31S28,24.64,22.23,18.81Z"/><path class="cls-8" d="M51.56,18.81c-3.69-3.71-1.23-9.12-1.23-9.12s-7.76,7.15-2.86,12.08c5.67,5.7,2.86,9.25,2.86,9.25S57.35,24.64,51.56,18.81Z"/></g></svg>