<svg id="Calque_1" data-name="Calque 1" xmlns="http://www.w3.org/2000/svg" viewBox="0 0 84.19 84.19"><defs><style>.cls-1{fill:#8cbf56;}.cls-2{fill:#658a48;}.cls-3{fill:#dd5042;}.cls-4{fill:#fbefef;}</style></defs><path class="cls-1" d="M28.88,15.33C30.77,10.18,45.09.57,45.09.57s4.5,17.17,2.61,22.31a9.68,9.68,0,0,1-12.83,5.55A10.41,10.41,0,0,1,28.88,15.33Z"/><path class="cls-2" d="M20.36,25.65c-2.29-5,1.07-21.95,1.07-21.95S36.7,12.64,39,17.62a9.74,9.74,0,0,1-5.17,13A10.31,10.31,0,0,1,20.36,25.65Z"/><path class="cls-1" d="M25.11,20.87C20.14,18.57,3.26,22,3.26,22s8.9,15.33,13.86,17.64a9.68,9.68,0,0,0,13-5.2A10.41,10.41,0,0,0,25.11,20.87Z"/><path class="cls-2" d="M14.84,29.43C9.71,31.33.15,45.72.15,45.72s17.08,4.52,22.21,2.62a9.74,9.74,0,0,0,5.52-12.88A10.33,10.33,0,0,0,14.84,29.43Z"/><path class="cls-3" d="M66.19,20.19c15.33,15.4,17.09,49,9.85,56.23s-40.54,5.49-55.94-10C8.76,55.05,14.07,37.87,25.87,26S54.85,8.79,66.19,20.19Z"/><path class="cls-4" d="M51.81,18.86a2,2,0,0,0-1.67.75c-.71,1-.08,2.69,1.41,3.73a4.16,4.16,0,0,0,2.32.8,2,2,0,0,0,1.67-.75c.71-1,.08-2.69-1.41-3.73a4.06,4.06,0,0,0-2.32-.8"/><path class="cls-4" d="M56.67,42.22a1.77,1.77,0,0,0-1.17.4c-.94.82-.73,2.59.46,4A3.8,3.8,0,0,0,58.66,48a1.7,1.7,0,0,0,1.16-.41c.94-.81.73-2.59-.46-4a3.79,3.79,0,0,0-2.69-1.42"/><path class="cls-4" d="M45.16,30.69a1.72,1.72,0,0,0-1.13.39c-1,.8-.78,2.58.39,4a3.77,3.77,0,0,0,2.71,1.46,1.72,1.72,0,0,0,1.14-.39c.95-.79.77-2.57-.4-4a3.78,3.78,0,0,0-2.71-1.46"/><path class="cls-4" d="M64.81,32a1.55,1.55,0,0,0-.79.2c-1.09.59-1.26,2.37-.39,4a3.48,3.48,0,0,0,2.76,2,1.65,1.65,0,0,0,.79-.19c1.09-.6,1.27-2.38.4-4a3.51,3.51,0,0,0-2.77-2"/><path class="cls-4" d="M70.92,49.64a1.75,1.75,0,0,0-.4,0c-1.2.31-1.8,2-1.34,3.75.4,1.57,1.52,2.68,2.61,2.68a1.32,1.32,0,0,0,.39-.06c1.21-.31,1.81-2,1.35-3.75-.41-1.57-1.52-2.67-2.61-2.67"/><path class="cls-4" d="M69.35,66.18a1.75,1.75,0,0,0-1.2.43c-.92.83-.68,2.61.54,4a3.86,3.86,0,0,0,2.68,1.36,1.75,1.75,0,0,0,1.2-.43c.92-.83.68-2.6-.54-4a3.83,3.83,0,0,0-2.68-1.37"/><path class="cls-4" d="M39.78,64.15a2,2,0,0,0-1.71.79c-.69,1,0,2.69,1.49,3.7a4.17,4.17,0,0,0,2.27.75,2,2,0,0,0,1.71-.79c.7-1,0-2.69-1.48-3.7a4.2,4.2,0,0,0-2.28-.75"/><path class="cls-4" d="M24.38,59.75a2,2,0,0,0-1.71.79c-.69,1,0,2.69,1.48,3.7a4.2,4.2,0,0,0,2.28.75,2,2,0,0,0,1.71-.79c.69-1,0-2.69-1.49-3.7a4.14,4.14,0,0,0-2.27-.75"/><path class="cls-4" d="M53,70.56a2.26,2.26,0,0,0-2.23,1.2c-.47,1.15.52,2.63,2.21,3.31a4.49,4.49,0,0,0,1.67.34,2.27,2.27,0,0,0,2.23-1.19c.46-1.15-.53-2.64-2.22-3.32A4.44,4.44,0,0,0,53,70.56"/><path class="cls-4" d="M56,57.27a2.05,2.05,0,0,0-1.84.88c-.64,1.07.12,2.69,1.68,3.62a4.3,4.3,0,0,0,2.14.63,2,2,0,0,0,1.84-.88c.64-1.07-.11-2.7-1.68-3.62A4.17,4.17,0,0,0,56,57.27"/><path class="cls-4" d="M41.73,47.81a1.87,1.87,0,0,0-1.49.62c-.79,1-.3,2.67,1.1,3.84a4.06,4.06,0,0,0,2.48,1,1.86,1.86,0,0,0,1.49-.62c.8-1,.31-2.68-1.1-3.84a4,4,0,0,0-2.48-1"/><path class="cls-4" d="M30.19,29.76a1.8,1.8,0,0,0-1.28.48c-.89.88-.57,2.64.7,3.93a3.89,3.89,0,0,0,2.63,1.25,1.77,1.77,0,0,0,1.29-.48c.89-.87.57-2.63-.71-3.92a3.85,3.85,0,0,0-2.63-1.26"/><path class="cls-4" d="M26.37,44.22a1.91,1.91,0,0,0-1.54.66c-.77,1-.24,2.68,1.19,3.8a4,4,0,0,0,2.44.94A1.89,1.89,0,0,0,30,49c.77-1,.24-2.68-1.19-3.81a4.06,4.06,0,0,0-2.44-.94"/></svg>