<svg id="Calque_1" data-name="Calque 1" xmlns="http://www.w3.org/2000/svg" viewBox="0 0 84.19 30.33"><defs><style>.cls-1{fill:#f2e9cb;}.cls-2{fill:#9c6734;}.cls-3{fill:#f9e74b;}.cls-4{fill:#e1c94a;}.cls-5{fill:#f5f6f6;}.cls-6{fill:#45ace0;}.cls-7{fill:#9e7659;}.cls-8{fill:#89674d;}.cls-9{fill:#accb54;}.cls-10{fill:#c3d456;}.cls-11{fill:#e7ebaa;}.cls-12{fill:#3f4448;}.cls-13{fill:#85bc56;}.cls-13,.cls-15{fill-rule:evenodd;}.cls-14{fill:#957252;}.cls-15{fill:#dd5042;}.cls-16{fill:#658a48;}.cls-17{fill:#b56137;}.cls-18{fill:#e7a84f;}.cls-19{fill:#83b354;}.cls-20{fill:#8cbf56;}</style></defs><path class="cls-1" d="M8.29,14.56c-1,1.47-2.63.19-1.61-1.28C8.52,11.51,8.48,9,9.17,8.9,10.05,8.79,10.7,11.4,8.29,14.56Z"/><path class="cls-2" d="M1.85,14.33l-.54.47a3.68,3.68,0,0,0,.45.59,4.37,4.37,0,0,0,.77-.78A3.14,3.14,0,0,1,1.85,14.33Z"/><path class="cls-3" d="M6.35,11.11a2,2,0,0,0-1.86.5c1.07-.57,2.64.73,2.41,1.14a3.78,3.78,0,0,1-4,1.95,2,2,0,0,1-.35-.09,4.37,4.37,0,0,1-.77.78,4.35,4.35,0,0,0,6-1.76A2,2,0,0,0,6.35,11.11Z"/><path class="cls-4" d="M10.7,14.72A2.06,2.06,0,0,0,9.42,13.4a1.61,1.61,0,0,0-1.7.23,4,4,0,0,1-4.22,2,4,4,0,0,1-1.41-.58l-.33.29a4.09,4.09,0,0,0,6.15,0C9.38,13.57,10.7,14.72,10.7,14.72Z"/><path class="cls-5" d="M6.41,14.39c.45-.28.69-.77.52-1.07a.49.49,0,0,0-.26-.21l-.08.12a.33.33,0,0,1,.19.16c.13.25,0,.64-.43.87s-.76.22-.91,0a1,1,0,0,1-.17.1h0C5.44,14.66,6,14.68,6.41,14.39Z"/><path class="cls-6" d="M5.44,14.25c.15.23.55.24.91,0s.56-.62.43-.87a.33.33,0,0,0-.19-.16A4,4,0,0,1,5.44,14.25Z"/><path class="cls-3" d="M10.7,14.72A2.33,2.33,0,0,1,9.09,17c-1,.18,1.32-3.1-.26-3.77C8.83,13.26,10.64,13.26,10.7,14.72Z"/><path class="cls-4" d="M6.62,11.2c-2.32-.95-3.11,2-1.95,1.64C5.09,12.71,5.33,11.84,6.62,11.2Z"/><path class="cls-7" d="M31,17.66c-7.44,0-7.44-9.39,0-9.39Z"/><ellipse class="cls-8" cx="30.95" cy="12.97" rx="3.81" ry="4.7"/><ellipse class="cls-9" cx="30.95" cy="12.97" rx="3.59" ry="4.43"/><ellipse class="cls-10" cx="30.95" cy="12.97" rx="3.14" ry="3.87"/><path class="cls-9" d="M33.42,13.79c-.05.23-1,0-1.06.19s.52,1.06.39,1.22-.83-.6-1-.49,0,1.24-.16,1.3-.47-1-.65-1-.49,1.09-.67,1,0-1.19-.15-1.3-.87.63-1,.48.48-1,.39-1.22-1,0-1.05-.2.84-.58.84-.81-.89-.6-.84-.82,1,0,1.06-.19-.52-1.06-.39-1.22.83.6,1,.49,0-1.24.16-1.3.47,1,.66,1,.48-1.09.66-1,0,1.18.15,1.29.87-.63,1-.47-.49,1-.4,1.21,1,0,1.05.2-.83.58-.83.81S33.47,13.57,33.42,13.79Z"/><polygon class="cls-11" points="33.04 12.97 31.77 13.24 32.76 14.25 31.55 13.71 32 15.19 31.17 13.98 30.95 15.54 30.73 13.98 29.91 15.19 30.35 13.71 29.14 14.25 30.13 13.24 28.87 12.97 30.13 12.69 29.14 11.68 30.35 12.22 29.91 10.74 30.73 11.95 30.95 10.4 31.17 11.95 32 10.74 31.55 12.22 32.76 11.68 31.77 12.69 33.04 12.97"/><polygon class="cls-12" points="30.52 10.68 30.45 11.05 30.66 11.35 30.72 10.97 30.52 10.68"/><polygon class="cls-12" points="30.12 10.15 30.05 10.53 30.26 10.82 30.33 10.44 30.12 10.15"/><polygon class="cls-12" points="31.54 10.59 31.27 10.8 31.25 11.19 31.51 10.98 31.54 10.59"/><polygon class="cls-12" points="31.38 15.26 31.45 14.88 31.25 14.58 31.18 14.96 31.38 15.26"/><polygon class="cls-12" points="31.78 15.78 31.85 15.4 31.65 15.11 31.58 15.49 31.78 15.78"/><polygon class="cls-12" points="30.37 15.34 30.63 15.13 30.66 14.74 30.39 14.95 30.37 15.34"/><polygon class="cls-12" points="32.81 12.43 32.5 12.35 32.26 12.6 32.57 12.69 32.81 12.43"/><polygon class="cls-12" points="33.24 11.94 32.93 11.86 32.69 12.11 33 12.2 33.24 11.94"/><polygon class="cls-12" points="32.88 13.69 32.71 13.36 32.39 13.33 32.56 13.66 32.88 13.69"/><polygon class="cls-12" points="29.09 13.5 29.4 13.58 29.64 13.33 29.33 13.25 29.09 13.5"/><polygon class="cls-12" points="28.66 13.99 28.97 14.07 29.21 13.82 28.91 13.74 28.66 13.99"/><polygon class="cls-12" points="29.03 12.24 29.2 12.57 29.51 12.6 29.34 12.28 29.03 12.24"/><polygon class="cls-12" points="32.44 11.5 32.13 11.58 32.01 11.94 32.31 11.85 32.44 11.5"/><polygon class="cls-12" points="32.66 10.83 32.35 10.91 32.22 11.27 32.53 11.18 32.66 10.83"/><polygon class="cls-12" points="29.25 15.11 29.55 15.02 29.68 14.66 29.38 14.75 29.25 15.11"/><polygon class="cls-12" points="29.76 11.13 29.83 11.51 30.12 11.67 30.05 11.29 29.76 11.13"/><polygon class="cls-12" points="29.21 10.87 29.29 11.24 29.57 11.4 29.5 11.02 29.21 10.87"/><polygon class="cls-12" points="32.69 15.07 32.62 14.69 32.33 14.53 32.4 14.91 32.69 15.07"/><path class="cls-13" d="M54,8.72a4.77,4.77,0,0,1-.08,1.7s-1.18-.69-1.35-1.08a.76.76,0,0,1,.4-1A.79.79,0,0,1,54,8.72Z"/><path class="cls-14" d="M54.33,10.51h-.41A1.75,1.75,0,0,1,55.8,8.69v.4A1.42,1.42,0,0,0,54.33,10.51Z"/><path class="cls-15" d="M54.12,10.43a2.68,2.68,0,0,0-4.54,2.12c0,2.1,2.47,5.11,3.55,5.11.49,0,.67-.3.95-.3s.38.3,1,.3c1.08,0,3.58-3,3.58-5.11A2.69,2.69,0,0,0,54.12,10.43Z"/><path class="cls-16" d="M75.82,9.71c.77.77.89,1.29.64,1.54s-.76.12-1.53-.64a6.6,6.6,0,0,1-1.24-2.14A6.7,6.7,0,0,1,75.82,9.71Z"/><path class="cls-16" d="M76.88,10.16c.46,1,.4,1.52.08,1.66s-.76-.14-1.22-1.12a6.64,6.64,0,0,1-.44-2.43A6.66,6.66,0,0,1,76.88,10.16Z"/><path class="cls-16" d="M77.81,11.28c-.45,1-.9,1.28-1.21,1.14s-.39-.68.06-1.66a6.58,6.58,0,0,1,1.57-1.91A6.66,6.66,0,0,1,77.81,11.28Z"/><path class="cls-16" d="M77.38,10.77c-.06,1.08-.37,1.51-.71,1.49s-.61-.48-.54-1.57a6.62,6.62,0,0,1,.76-2.34A6.47,6.47,0,0,1,77.38,10.77Z"/><path class="cls-16" d="M78.37,11.71c-.7.83-1.2,1-1.47.77s-.19-.75.5-1.58a6.78,6.78,0,0,1,2-1.43A6.58,6.58,0,0,1,78.37,11.71Z"/><path class="cls-16" d="M75.38,11.67c1,.46,1.51.39,1.66.08s-.14-.77-1.13-1.23a6.77,6.77,0,0,0-2.43-.43A6.77,6.77,0,0,0,75.38,11.67Z"/><path class="cls-16" d="M76.5,12.59c1-.45,1.28-.89,1.13-1.21S77,11,76,11.45A6.74,6.74,0,0,0,74.06,13,6.6,6.6,0,0,0,76.5,12.59Z"/><path class="cls-16" d="M76,12.17c1.08-.06,1.52-.37,1.5-.72s-.49-.6-1.57-.54a6.63,6.63,0,0,0-2.35.77A6.75,6.75,0,0,0,76,12.17Z"/><path class="cls-16" d="M76.93,13.15c.83-.69,1-1.2.77-1.47s-.76-.19-1.59.51a6.54,6.54,0,0,0-1.42,2A6.69,6.69,0,0,0,76.93,13.15Z"/><path class="cls-17" d="M81.93,12.84c1.25,1.25.9,2.64-.17,3.7s-2.45,1.42-3.7.17-2.31-4-1.24-5.11S80.67,11.59,81.93,12.84Z"/><path class="cls-18" d="M80.54,15.32c-.15.16-.33.68-.19.83s.67,0,.82-.19.33-.68.19-.83S80.69,15.17,80.54,15.32Z"/><path class="cls-18" d="M81.45,16.24c-.15.15-.28.72-.14.86s1.15-.87,1-1S81.6,16.08,81.45,16.24Z"/><path class="cls-18" d="M78.63,13.41c-.16.15-.34.68-.19.82s.67,0,.82-.19.33-.68.19-.82S78.78,13.26,78.63,13.41Z"/><path class="cls-18" d="M79.58,14.37c-.15.15-.33.68-.19.82s.67,0,.83-.19.33-.68.18-.82S79.73,14.21,79.58,14.37Z"/><path class="cls-18" d="M77.71,12.49c-.15.15-.33.68-.19.82s.67,0,.82-.19.33-.68.19-.82S77.86,12.34,77.71,12.49Z"/><path class="cls-18" d="M77.73,16.1a.73.73,0,0,0,.56,1.09c.2,0,.55-1.17.41-1.31S77.87,16,77.73,16.1Z"/><path class="cls-18" d="M78.88,17c-.55.55.37.9.74.53a.59.59,0,0,0,0-.67C79.52,16.7,79,16.84,78.88,17Z"/><path class="cls-18" d="M79.14,15.63c-.15.15-.32.8-.18.94s.81,0,1-.16.24-.75.09-.9S79.3,15.48,79.14,15.63Z"/><path class="cls-18" d="M80.11,16.6c-.15.15-.27.73-.13.87s.76.06.91-.09.24-.78.1-.92S80.27,16.44,80.11,16.6Z"/><path class="cls-18" d="M78.21,14.7c-.15.15-.36.76-.22.9s.8,0,1-.18.28-.73.14-.87S78.37,14.55,78.21,14.7Z"/><path class="cls-18" d="M76.39,12.85a.66.66,0,0,0-.08.72.63.63,0,0,0,.71-.09c.16-.15.34-.68.19-.82S76.54,12.7,76.39,12.85Z"/><path class="cls-18" d="M76.4,13.91c-.14.14.12,1,.26.88s.38-.73.24-.87A.35.35,0,0,0,76.4,13.91Z"/><path class="cls-18" d="M77,15.06c-.18.18-.22,1,.29,1,.19,0,.65-1,.51-1.14S77.12,14.92,77,15.06Z"/><path class="cls-18" d="M77.28,13.76c-.15.15-.29.74-.15.89s.75,0,.9-.13.26-.74.11-.89S77.43,13.61,77.28,13.76Z"/><path class="cls-18" d="M81.31,12.52c.22-.22.91-.16,1.09.56,0,.19-1.16.55-1.3.4S81.18,12.66,81.31,12.52Z"/><path class="cls-18" d="M82.2,13.66c.55-.54.9.37.53.74a.6.6,0,0,1-.68,0C81.91,14.3,82.06,13.8,82.2,13.66Z"/><path class="cls-18" d="M80.84,13.93c.16-.15.8-.33.94-.19s0,.82-.15,1-.76.24-.9.1S80.69,14.08,80.84,13.93Z"/><path class="cls-18" d="M81.81,14.9c.16-.15.74-.28.88-.14s0,.76-.1.92-.77.24-.91.09S81.66,15.05,81.81,14.9Z"/><path class="cls-18" d="M79.91,13c.16-.15.76-.37.9-.23s0,.8-.17,1-.73.28-.88.14S79.76,13.15,79.91,13Z"/><path class="cls-18" d="M78.07,11.18a.63.63,0,0,1,.71-.09.66.66,0,0,1-.08.72c-.15.15-.68.33-.82.19S77.91,11.33,78.07,11.18Z"/><path class="cls-18" d="M79.13,11.19c.14-.14,1,.12.88.25s-.73.39-.87.25A.34.34,0,0,1,79.13,11.19Z"/><path class="cls-18" d="M80.27,11.76c.18-.18,1-.22,1,.29,0,.2-1,.65-1.15.51S80.13,11.9,80.27,11.76Z"/><path class="cls-18" d="M79,12.06c.15-.15.74-.28.88-.14s0,.74-.13.9-.74.25-.88.11S78.83,12.22,79,12.06Z"/><path class="cls-19" d="M76.6,10.84c.59.59.71.95.56,1.1s-.52,0-1.1-.55a6.08,6.08,0,0,1-1-1.56A6,6,0,0,1,76.6,10.84Z"/><path class="cls-19" d="M77.2,12.89c.52-.42.59-.75.42-1s-.53-.19-1.05.22a3.42,3.42,0,0,0-.83,1.28A3.72,3.72,0,0,0,77.2,12.89Z"/><path class="cls-19" d="M76.52,11.74c.73,0,1.08.18,1.13.42s-.2.44-.93.45A5.15,5.15,0,0,1,75,12.19,3.74,3.74,0,0,1,76.52,11.74Z"/><path class="cls-19" d="M76.44,11.15c.75.2,1,.47,1,.7s-.33.34-1.08.14a6.17,6.17,0,0,1-1.63-.87A4.47,4.47,0,0,1,76.44,11.15Z"/><path class="cls-19" d="M78.1,12c-.41.52-.75.59-.95.42s-.19-.53.23-1.05a3.34,3.34,0,0,1,1.28-.82A3.61,3.61,0,0,1,78.1,12Z"/><path class="cls-19" d="M77,11.3c0,.73.19,1.08.43,1.14s.44-.21.45-.94a5.34,5.34,0,0,0-.42-1.7A3.61,3.61,0,0,0,77,11.3Z"/><path class="cls-19" d="M76.36,11.23c.21.75.48,1,.71,1s.34-.34.13-1.09a5.83,5.83,0,0,0-.86-1.62A4.36,4.36,0,0,0,76.36,11.23Z"/><path class="cls-20" d="M77.84,11.48a2.15,2.15,0,0,0-.53-.59,3.29,3.29,0,0,0-.19.56c-.33-.14-.88-.42-.88-.42s.29.55.43.88a3.78,3.78,0,0,0-.57.18,2.1,2.1,0,0,0,.6.53,3,3,0,0,0-.39.86,4.25,4.25,0,0,0,1.54-.85,4.32,4.32,0,0,0,.84-1.53A3.15,3.15,0,0,0,77.84,11.48Z"/></svg>