<svg id="Calque_1" data-name="Calque 1" xmlns="http://www.w3.org/2000/svg" viewBox="0 0 84.19 30.33"><defs><style>.cls-1{fill:#8f6345;}.cls-2{fill:#a87451;}.cls-3{fill:#e89066;}.cls-4,.cls-6{fill:#8cbf56;}.cls-5,.cls-7{fill:#7fb555;}.cls-15,.cls-5,.cls-6,.cls-9{fill-rule:evenodd;}.cls-8{fill:#d97547;}.cls-9{fill:#77a953;}.cls-10{fill:#957252;}.cls-11{fill:#658a48;}.cls-12{fill:#fce54a;}.cls-13{fill:#de5659;}.cls-14{fill:#c8d873;}.cls-15{fill:#3f4448;}.cls-16{fill:#638d4a;}.cls-17{fill:#eb9a3f;}.cls-18{fill:#f5c14e;}</style></defs><path class="cls-1" d="M5.64,11.9c0-.36-.53-.43-.53-.08s-.22.56-.22.79.63.32.63,0S5.64,12.39,5.64,11.9Z"/><path class="cls-2" d="M5.44,11.85c.43,0-.36-.56-.36,0s-.3.6-.17.87C5.19,12.33,5,11.85,5.44,11.85Z"/><path class="cls-3" d="M1,15.59C1,13.05,3,11.5,5.22,12.69A3.2,3.2,0,0,1,10,15.59a4.11,4.11,0,0,1-2.81,4.13,7.44,7.44,0,0,1-2.23.45c-.44,0-.43-.23-.85-.35A4.13,4.13,0,0,1,1,15.59Z"/><path class="cls-4" d="M5.33,11.78a.05.05,0,0,1,0,0c-.32-.46-.62-.36-.62-.36l0-.16s.38-.13.74.41a.11.11,0,0,1,0,.12Z"/><path class="cls-5" d="M4.06,10.8C2.5,10.65.89,12.45.89,12.45a4.23,4.23,0,0,1,2-.22c1,.2,1.8-.94,1.8-.94A.94.94,0,0,0,4.06,10.8Z"/><path class="cls-6" d="M2.61,12a6.72,6.72,0,0,1-2,1.73,4.72,4.72,0,0,0,3.74-1.39,2,2,0,0,0,.42-1.11A2.08,2.08,0,0,0,2.61,12Z"/><path class="cls-7" d="M4.73,11.27a2.74,2.74,0,0,0-.52.15,4.86,4.86,0,0,0-.55.29,10.29,10.29,0,0,0-1,.8,7.75,7.75,0,0,1-1,.75,6.85,6.85,0,0,1-1.06.51l.53-.18a4.43,4.43,0,0,0,.54-.26,6.47,6.47,0,0,0,1.05-.75,12,12,0,0,1,1-.8A3.76,3.76,0,0,1,4.73,11.27Z"/><path class="cls-8" d="M6.59,15.77a4.16,4.16,0,0,1-.11,1.65,3,3,0,0,1-.91,1.44A2.52,2.52,0,0,0,7,17.57a3.19,3.19,0,0,0,.27-1.78A4.18,4.18,0,0,0,6.56,14,3.74,3.74,0,0,0,5,12.56,4.47,4.47,0,0,1,6.11,14.1,5.2,5.2,0,0,1,6.59,15.77Z"/><path class="cls-9" d="M29,11.2c-1.13-.51-1.92,1.08-1.92,1.08s.33.74.84.89c1.81.55,3.38-1.88,3.38-1.88A3.46,3.46,0,0,1,29,11.2Z"/><path class="cls-10" d="M26,11.71c-.06,0-.08.22,0,.24A2,2,0,0,1,27.4,13c0,.2.33,0,.23-.24A2.41,2.41,0,0,0,26,11.71Z"/><path class="cls-11" d="M33.62,19.52a.28.28,0,0,0,.33,0,.32.32,0,0,0,0-.34c0-.05-.15,0-.24.09S33.58,19.48,33.62,19.52Z"/><path class="cls-12" d="M27.28,13.46c-.08-.11,0-.37.24-.59s.46-.33.57-.25c1.31-.85,3.32-.46,4.76,1a4.44,4.44,0,0,1,1.22,4.47,1,1,0,0,1-.23,1.29,1,1,0,0,1-1.25.23,4.08,4.08,0,0,1-4.31-1.27A4.23,4.23,0,0,1,27.28,13.46Z"/><path class="cls-6" d="M27.49,13c-.22-.65-1.19-1-1.19-1s-2,1.11-1.26,2.56a4.58,4.58,0,0,1,.25,3S28.3,15.32,27.49,13Z"/><path class="cls-7" d="M26.3,12a3.06,3.06,0,0,0-.36.61,3.22,3.22,0,0,0-.19.71,6.55,6.55,0,0,0,0,1.47,5.19,5.19,0,0,1,0,1.42,5,5,0,0,1-.45,1.35,5.45,5.45,0,0,0,.35-.62,4.37,4.37,0,0,0,.22-.7,4.55,4.55,0,0,0,.08-1.47,8.67,8.67,0,0,1-.07-1.43A3.3,3.3,0,0,1,26.3,12Z"/><path class="cls-13" d="M49.22,18.34a6.86,6.86,0,0,0,9.35,0l-4.68-7.54Z"/><path class="cls-14" d="M49.82,17.37l-.18.24a6.87,6.87,0,0,0,8.5,0L58,17.36A6.87,6.87,0,0,1,49.82,17.37Z"/><path class="cls-4" d="M49.65,17.61l-.45.72a6.89,6.89,0,0,0,9.39,0l-.45-.72A6.91,6.91,0,0,1,49.65,17.61Z"/><path class="cls-15" d="M51.39,16.51a2.23,2.23,0,0,1,.37-.72,2.62,2.62,0,0,1,.39.73.36.36,0,0,1-.38.36A.38.38,0,0,1,51.39,16.51Z"/><path class="cls-15" d="M53.33,17.22a2.34,2.34,0,0,1,.37-.72,2.46,2.46,0,0,1,.39.74.37.37,0,0,1-.37.36A.41.41,0,0,1,53.33,17.22Z"/><path class="cls-15" d="M54.6,15.41a2.34,2.34,0,0,1,.37-.72,2.36,2.36,0,0,1,.38.74.35.35,0,0,1-.37.36A.39.39,0,0,1,54.6,15.41Z"/><path class="cls-15" d="M55.88,17.12a2.34,2.34,0,0,1,.37-.72,2.46,2.46,0,0,1,.39.74.37.37,0,0,1-.37.36A.41.41,0,0,1,55.88,17.12Z"/><path class="cls-15" d="M53.14,13.74a2.34,2.34,0,0,1,.37-.72,2.48,2.48,0,0,1,.38.74.35.35,0,0,1-.37.36A.39.39,0,0,1,53.14,13.74Z"/><path class="cls-11" d="M53.3,19v1.11a7.75,7.75,0,0,0,1.18,0V19A7.75,7.75,0,0,1,53.3,19Z"/><path class="cls-11" d="M50.54,18.2l-.34.92a6.5,6.5,0,0,0,1,.54l.37-1A5.23,5.23,0,0,1,50.54,18.2Z"/><path class="cls-11" d="M57.25,18.2a7.41,7.41,0,0,1-1.08.48l.37,1a7.51,7.51,0,0,0,1.05-.55Z"/><path class="cls-16" d="M77.92,12.27l0-.19a1.61,1.61,0,0,0,1.23.12l0,.12A1.79,1.79,0,0,1,77.92,12.27Z"/><ellipse class="cls-17" cx="77.56" cy="16.44" rx="4.05" ry="3.74"/><path class="cls-5" d="M76.64,13.43c0-.19.73-.09.73-.09s0-.46.09-.49.33.44.33.44.57-.22.64-.07-.4.4-.4.4.6.48.48.64-.77-.34-.77-.34-.4.69-.58.59.14-.79.14-.79S76.61,13.61,76.64,13.43Z"/><polyline class="cls-18" points="76.11 15.03 75.99 15.15 76.11 15.28 76.23 15.15 76.11 15.03"/><polyline class="cls-18" points="75.17 14.96 75.05 15.08 75.17 15.21 75.29 15.08 75.17 14.96"/><polyline class="cls-18" points="74.41 14.96 74.29 15.08 74.41 15.21 74.53 15.08 74.41 14.96"/><polyline class="cls-18" points="76.64 15.55 76.51 15.68 76.64 15.8 76.76 15.68 76.64 15.55"/><polyline class="cls-18" points="76.11 16.19 75.99 16.31 76.11 16.44 76.23 16.31 76.11 16.19"/><polyline class="cls-18" points="75.29 16.19 75.17 16.31 75.29 16.44 75.41 16.31 75.29 16.19"/><polyline class="cls-18" points="74.36 16.26 74.23 16.38 74.36 16.51 74.48 16.38 74.36 16.26"/><polyline class="cls-18" points="75.7 15.58 75.58 15.71 75.7 15.83 75.82 15.71 75.7 15.58"/><polyline class="cls-18" points="74.88 15.58 74.76 15.71 74.88 15.83 75 15.71 74.88 15.58"/><polyline class="cls-18" points="74.06 15.58 73.94 15.71 74.06 15.83 74.18 15.71 74.06 15.58"/><polyline class="cls-18" points="76.55 14.47 76.43 14.6 76.55 14.72 76.67 14.6 76.55 14.47"/><polyline class="cls-18" points="75.64 14.47 75.52 14.6 75.64 14.72 75.77 14.6 75.64 14.47"/><polyline class="cls-18" points="74.76 14.35 74.64 14.47 74.76 14.6 74.88 14.47 74.76 14.35"/><polyline class="cls-18" points="76.2 13.99 76.08 14.12 76.2 14.24 76.33 14.12 76.2 13.99"/><polyline class="cls-18" points="75.86 13.52 75.74 13.65 75.86 13.77 75.98 13.65 75.86 13.52"/><polyline class="cls-18" points="75.29 13.87 75.17 13.99 75.29 14.12 75.41 13.99 75.29 13.87"/><polyline class="cls-18" points="75.7 16.81 75.58 16.94 75.7 17.06 75.82 16.94 75.7 16.81"/><polyline class="cls-18" points="74.84 16.81 74.72 16.94 74.84 17.06 74.96 16.94 74.84 16.81"/><path class="cls-6" d="M80.62,11.44a3,3,0,0,0,2.28.61s-2.06,2.58-3.75,1.53S79.15,10.22,80.62,11.44Z"/><path class="cls-16" d="M78,10.92l-.29.14a2.49,2.49,0,0,1-.24,2.41c-.2.18.25.36.45.09A3.07,3.07,0,0,0,78,10.92Z"/><path class="cls-4" d="M77.83,10.79c.08,0,.15.09.15.21s-.07.21-.15.21-.16-.1-.16-.21S77.74,10.79,77.83,10.79Z"/><path class="cls-7" d="M78.49,12.32a2.33,2.33,0,0,1,.52-.27,1.79,1.79,0,0,1,.57-.09,4.8,4.8,0,0,1,1.13.21,3.43,3.43,0,0,0,1.1.14,3.22,3.22,0,0,0,1.09-.26,3.11,3.11,0,0,1-.52.25,2.68,2.68,0,0,1-.56.13,3.18,3.18,0,0,1-1.15-.11,5.33,5.33,0,0,0-1.09-.24A2.12,2.12,0,0,0,78.49,12.32Z"/></svg>