<svg id="Calque_1" data-name="Calque 1" xmlns="http://www.w3.org/2000/svg" viewBox="0 0 84.19 84.19"><defs><style>.cls-1{fill:#9e7659;}.cls-2{fill:#89674d;}.cls-3{fill:#accb54;}.cls-4{fill:#c3d456;}.cls-5{fill:#e7ebaa;}.cls-6{fill:#3f4448;}</style></defs><path class="cls-1" d="M49.65,82.64c-63.39,0-63.39-80,0-80Z"/><ellipse class="cls-2" cx="49.65" cy="42.64" rx="32.46" ry="40"/><ellipse class="cls-3" cx="49.65" cy="42.64" rx="30.57" ry="37.68"/><ellipse class="cls-4" cx="49.65" cy="42.64" rx="26.73" ry="32.94"/><path class="cls-3" d="M70.65,49.67c-.42,1.9-8.21,0-9,1.6s4.4,9.07,3.3,10.41-7.07-5.11-8.42-4.16.16,10.56-1.35,11-4-8.77-5.61-8.78S45.48,69,43.94,68.52s0-10.12-1.29-11.06-7.36,5.42-8.45,4.07,4.15-8.71,3.37-10.37-8.57.2-9-1.67,7.12-5,7.13-6.91-7.51-5.08-7.08-7,8.2,0,9-1.59-4.4-9.07-3.31-10.41,7.08,5.11,8.42,4.16S42.58,17.2,44.09,16.7s4,8.78,5.6,8.79,4.12-9.25,5.67-8.73,0,10.12,1.29,11.06S64,22.4,65.1,23.74,61,32.46,61.73,34.12s8.56-.2,9,1.67-7.12,5-7.12,6.91S71.07,47.77,70.65,49.67Z"/><polygon class="cls-5" points="67.4 42.64 56.66 44.96 65.02 53.59 54.78 48.96 58.53 61.58 51.53 51.27 49.65 64.52 47.77 51.27 40.77 61.58 44.52 48.96 34.27 53.58 42.64 44.96 31.9 42.64 42.64 40.32 34.28 31.7 44.52 36.32 40.77 23.69 47.77 34.01 49.65 20.76 51.53 34.01 58.53 23.69 54.78 36.32 65.03 31.7 56.66 40.32 67.4 42.64"/><polygon class="cls-6" points="45.98 23.15 45.39 26.37 47.12 28.89 47.72 25.67 45.98 23.15"/><polygon class="cls-6" points="42.59 18.65 42 21.87 43.73 24.39 44.33 21.17 42.59 18.65"/><polygon class="cls-6" points="54.63 22.45 52.36 24.21 52.15 27.51 54.41 25.75 54.63 22.45"/><polygon class="cls-6" points="53.32 62.13 53.91 58.9 52.18 56.39 51.58 59.61 53.32 62.13"/><polygon class="cls-6" points="56.71 66.63 57.3 63.41 55.57 60.89 54.97 64.11 56.71 66.63"/><polygon class="cls-6" points="44.67 62.83 46.94 61.07 47.15 57.77 44.88 59.53 44.67 62.83"/><polygon class="cls-6" points="65.47 38.12 62.85 37.38 60.81 39.52 63.42 40.26 65.47 38.12"/><polygon class="cls-6" points="69.12 33.94 66.5 33.21 64.46 35.35 67.08 36.08 69.12 33.94"/><polygon class="cls-6" points="66.03 48.78 64.6 45.98 61.93 45.72 63.36 48.51 66.03 48.78"/><polygon class="cls-6" points="33.83 47.16 36.45 47.89 38.49 45.75 35.88 45.02 33.83 47.16"/><polygon class="cls-6" points="30.18 51.34 32.8 52.07 34.84 49.93 32.23 49.2 30.18 51.34"/><polygon class="cls-6" points="33.27 36.5 34.7 39.29 37.37 39.56 35.94 36.77 33.27 36.5"/><polygon class="cls-6" points="62.33 30.14 59.71 30.88 58.62 33.89 61.23 33.16 62.33 30.14"/><polygon class="cls-6" points="64.16 24.42 61.54 25.16 60.45 28.18 63.06 27.45 64.16 24.42"/><polygon class="cls-6" points="35.14 60.85 37.76 60.12 38.85 57.1 36.24 57.83 35.14 60.85"/><polygon class="cls-6" points="39.51 27.02 40.1 30.24 42.55 31.59 41.96 28.36 39.51 27.02"/><polygon class="cls-6" points="34.87 24.76 35.47 27.98 37.91 29.33 37.32 26.11 34.87 24.76"/><polygon class="cls-6" points="64.43 60.52 63.83 57.29 61.38 55.95 61.98 59.17 64.43 60.52"/></svg>